<svg xmlns="http://www.w3.org/2000/svg" xmlns:xlink="http://www.w3.org/1999/xlink" version="1.1" width="790" height="180" viewBox="117 295 790 180" xml:space="preserve">
<desc>Created with Fabric.js 6.7.1</desc>
<defs>
</defs>
<g transform="matrix(1 0 0 1 511.9152 383.9435)">
<path style="stroke: none; stroke-width: 1; stroke-dasharray: none; stroke-linecap: butt; stroke-dashoffset: 0; stroke-linejoin: miter; stroke-miterlimit: 4; fill: rgb(0,0,0); fill-rule: nonzero; opacity: 1;" transform=" translate(-511.9152, -383.9435)" d="M 401.4239 308.439 C 401.4239 310.7262 400.607 312.6868 399.1366 314.1571 C 397.6663 315.6275 395.8691 316.281 393.5819 316.281 L 358.4562 316.281 L 358.4562 419.6975 C 358.4562 422.1481 357.6393 424.1086 356.0056 425.7424 C 354.3718 427.3761 352.2479 428.193 349.9607 428.193 C 347.5101 428.193 345.5496 427.3761 343.9158 425.7424 C 342.2821 424.1086 341.4652 422.1481 341.4652 419.6975 L 341.4652 316.281 L 306.1761 316.281 C 303.8889 316.281 301.9284 315.6275 300.458 314.1571 C 298.9876 312.6867 298.3341 310.7262 298.3341 308.439 C 298.3341 306.1517 298.9876 304.3546 300.458 302.8842 C 301.9284 301.4139 303.8889 300.597 306.1761 300.597 L 393.5819 300.597 C 395.8691 300.597 397.6663 301.4139 399.1366 302.8842 C 400.607 304.3546 401.4239 306.1517 401.4239 308.439 Z M 451.0902 338.5656 C 452.5606 340.036 453.3774 341.9965 453.3774 344.1204 C 453.3774 346.2443 452.5606 348.0414 451.0902 349.6751 C 449.4564 351.1455 447.6593 351.9624 445.5354 351.9624 C 436.223 351.9624 428.2177 355.2299 421.5193 361.9283 C 414.9843 368.4633 411.7168 376.4687 411.7168 385.7811 L 411.7168 420.2532 C 411.7168 422.5405 410.8999 424.3376 409.2661 425.808 C 407.7958 427.4417 405.9986 428.0952 403.8748 428.0952 C 401.5875 428.0952 399.7904 427.4417 398.32 425.808 C 396.6863 424.3376 396.0328 422.5405 396.0328 420.2532 L 396.0328 385.7811 C 396.0328 372.0575 400.7706 360.4579 410.4098 350.8188 C 420.2123 341.1796 431.8119 336.2784 445.5354 336.2784 C 447.6593 336.2784 449.4564 337.0953 451.0902 338.5656 Z M 554.1958 383.5916 L 554.1958 421.0045 C 554.1958 423.2918 553.3789 425.0889 551.9086 426.5593 C 550.2748 428.193 548.4777 428.8465 546.3538 428.8465 C 544.0666 428.8465 542.2694 428.193 540.7991 426.5593 C 539.1653 425.0889 538.5118 423.2918 538.5118 421.0045 L 538.5118 417.9004 C 530.0163 425.2523 520.0504 428.8465 508.7775 428.8465 C 496.1976 428.8465 485.5782 424.4354 476.756 415.6131 C 467.9337 406.7909 463.5226 396.1715 463.5226 383.5916 C 463.5226 371.0117 467.9337 360.3923 476.756 351.57 C 485.5782 342.7478 496.1976 338.1733 508.7775 338.1733 C 521.3574 338.1733 531.9768 342.7478 540.7991 351.57 C 549.7847 360.3923 554.1958 371.0117 554.1958 383.5916 Z M 529.6895 404.5036 C 535.5711 398.7855 538.5118 391.7603 538.5118 383.5916 C 538.5118 375.4228 535.5711 368.3977 529.6895 362.6795 C 523.9714 356.798 516.9463 354.0207 508.7775 354.0207 C 500.6087 354.0207 493.5836 356.798 487.8655 362.6795 C 481.984 368.3977 479.2066 375.4228 479.2066 383.5916 C 479.2066 391.7603 481.984 398.7855 487.8655 404.5036 C 493.5836 410.3851 500.6087 413.1625 508.7775 413.1625 C 516.9463 413.1625 523.9714 410.3851 529.6895 404.5036 Z M 652.2048 357.1248 C 652.2048 359.5754 650.8978 361.5359 648.6105 363.1697 C 647.4669 363.9866 646.1599 364.3133 644.8529 364.3133 C 642.2389 364.3133 640.115 363.3331 638.4813 361.3726 C 635.7039 358.4318 632.7632 356.3079 629.4956 355.0009 C 626.2281 353.6939 622.6339 352.8771 618.5495 352.8771 C 610.054 352.8771 603.3556 355.8178 598.1276 361.3726 C 592.8996 366.9273 590.2856 374.4426 590.2856 383.5916 C 590.2856 389.4731 591.4292 394.8645 593.8798 399.439 C 596.3305 404.0135 599.7614 407.6078 604.1725 410.2218 C 608.5836 412.8358 613.6482 414.1428 619.3664 414.1428 C 626.7183 414.1428 632.7631 412.3456 637.3376 408.4246 C 639.2981 406.9542 641.422 406.1374 643.3825 406.1374 C 644.8529 406.1374 646.3233 406.6275 647.6303 407.6078 C 649.5908 409.4049 650.7344 411.3654 650.7344 413.4893 C 650.7344 415.123 650.0809 416.5934 648.7739 417.9004 C 640.9319 425.2523 631.1294 428.8465 619.3664 428.8465 C 610.7075 428.8465 603.0289 426.886 596.1671 422.965 C 589.3053 419.044 583.9139 413.6526 579.993 406.7909 C 576.072 399.9291 574.2748 392.0871 574.2748 383.5916 C 574.2748 374.9327 576.072 367.0907 579.8296 360.229 C 583.5872 353.3672 588.8152 347.9758 595.677 344.0548 C 602.3754 340.1338 610.054 338.1733 618.5495 338.1733 C 631.2928 338.1733 642.0755 343.0746 650.571 352.8771 C 651.5513 354.1841 652.2048 355.4911 652.2048 357.1248 Z M 683.5727 415.6131 C 674.7504 406.7909 670.1759 396.1715 670.1759 383.5916 C 670.1759 371.0117 674.7504 360.3923 683.5727 351.57 C 692.3949 342.7478 703.0143 338.1733 715.5942 338.1733 C 728.1741 338.1733 738.7935 342.7478 747.6157 351.57 C 756.438 360.3923 761.0125 371.0117 761.0125 383.5916 C 761.0125 385.7155 760.1956 387.676 758.5619 389.1463 C 757.0915 390.6167 755.2944 391.4336 753.1705 391.4336 L 715.5942 391.4336 C 713.4703 391.4336 711.5098 390.6167 710.0394 389.1463 C 708.5691 387.676 707.7522 385.7155 707.7522 383.5916 C 707.7522 381.4677 708.5691 379.5072 710.0394 378.0368 C 711.5098 376.5665 713.4703 375.7496 715.5942 375.7496 L 744.1849 375.7496 C 742.3877 369.378 738.9568 364.1499 733.7288 360.0656 C 728.3375 355.9812 722.2926 354.0207 715.5942 354.0207 C 707.4254 354.0207 700.4003 356.7981 694.6822 362.6796 C 688.8007 368.3977 686.0233 375.4228 686.0233 383.5916 C 686.0233 391.7604 688.8007 398.7855 694.6822 404.5036 C 700.4003 410.3851 707.4254 413.1625 715.5942 413.1625 C 722.6193 413.1625 728.8276 411.0386 734.3823 406.6275 C 736.0161 405.1571 737.9766 404.667 740.1005 404.8304 C 742.2244 404.9938 744.0215 405.974 745.3285 407.6078 C 746.7989 409.4049 747.289 411.202 747.1256 413.4893 C 746.7989 415.6132 745.982 417.4103 744.1849 418.7173 C 735.8527 425.579 726.377 428.8465 715.5942 428.8465 C 703.0143 428.8465 692.3949 424.4354 683.5727 415.6132 Z M 783.3951 300.597 C 785.6823 300.597 787.6428 301.4139 789.2766 302.8842 C 790.747 304.518 791.5639 306.4785 791.5639 308.7657 L 791.5639 397.9686 C 791.5639 402.053 792.2174 405.3205 793.8511 407.9345 C 795.3215 410.5485 797.282 411.8555 799.7326 411.8555 L 803.817 411.8555 C 805.9409 411.8555 807.738 412.6724 809.045 414.1427 C 810.352 415.7765 811.1689 417.737 811.1689 420.0242 C 811.1689 422.4749 810.0253 424.4354 808.0648 425.9058 C 805.9409 427.5395 803.3269 428.193 800.0594 428.193 L 799.7326 428.193 C 794.9947 428.193 790.747 427.0494 786.9894 424.4354 C 783.2317 421.8214 780.291 418.2271 778.3305 413.6526 C 776.2066 409.0781 775.2263 403.8501 775.2263 397.9686 L 775.2263 308.7657 C 775.2263 306.4785 775.8798 304.518 777.5136 302.8842 C 778.984 301.4138 780.9445 300.597 783.3951 300.597 Z M 899.8816 349.9363 L 849.8888 462.3384 C 848.5818 465.7693 846.4579 467.403 843.5172 467.403 C 842.3735 467.403 841.0665 467.0763 839.5961 466.4228 C 836.3286 465.1158 834.6949 462.9919 834.6949 460.0512 C 834.6949 458.7442 835.0216 457.4372 835.6751 456.1302 L 852.0127 419.3707 L 815.2532 349.6095 C 814.5997 348.6293 814.4364 347.4857 814.4364 346.1787 C 814.4364 344.8716 814.7631 343.5647 815.7434 342.2577 C 816.5602 341.114 817.7039 340.1338 819.1742 339.4803 C 820.1545 339.1535 821.1347 338.8268 822.4417 338.8268 C 825.3825 338.8268 827.6698 340.4605 829.3035 343.4013 L 859.2012 402.8698 L 885.5046 343.5646 C 886.8116 340.4605 888.9355 338.8268 891.8762 338.8268 C 893.1832 338.8268 894.4902 339.1535 895.7972 339.6436 C 899.0647 340.9506 900.8618 343.0745 900.8618 346.0153 C 900.8618 347.1589 900.5351 348.4659 899.8816 349.9363 Z M 192.6703 300.4839 C 210.6733 314.0828 230.927 326.0629 262.4325 337.3952 C 262.4325 361.6739 257.257 385.1176 244.5075 407.5752 C 203.6196 365.054 187.9178 351.2148 129.8115 334.7846 C 157.131 324.2134 173.9478 313.0547 192.6703 300.4839 Z M 122.9685 340.7343 C 170.7506 369.9636 197.308 382.1917 223.6152 435.9872 C 215.0047 445.4048 204.7676 454.6653 192.6703 463.6707 C 142.2004 426.1004 123.8525 384.7922 122.9685 340.7343 Z" stroke-linecap="round"/>
</g>
</svg>